<mxfile>
    <diagram id="5_PsxuUctauhOo19xLV4" name="ページ1">
        <mxGraphModel dx="2146" dy="610" grid="1" gridSize="10" guides="1" tooltips="1" connect="1" arrows="1" fold="1" page="1" pageScale="1" pageWidth="850" pageHeight="1100" math="0" shadow="0">
            <root>
                <mxCell id="0"/>
                <mxCell id="1" parent="0"/>
                <mxCell id="9" value="初期データで一つルームを作る&lt;br&gt;Item_id&lt;br&gt;" style="whiteSpace=wrap;html=1;" parent="1" vertex="1">
                    <mxGeometry x="360" y="70" width="220" height="120" as="geometry"/>
                </mxCell>
                <mxCell id="2" value="アイテム1" style="whiteSpace=wrap;html=1;" parent="1" vertex="1">
                    <mxGeometry x="100" y="140" width="120" height="30" as="geometry"/>
                </mxCell>
                <mxCell id="16" style="edgeStyle=orthogonalEdgeStyle;rounded=0;orthogonalLoop=1;jettySize=auto;html=1;entryX=0;entryY=0.5;entryDx=0;entryDy=0;" parent="1" source="3" target="9" edge="1">
                    <mxGeometry relative="1" as="geometry">
                        <mxPoint x="340" y="180" as="targetPoint"/>
                        <Array as="points">
                            <mxPoint x="270" y="225"/>
                            <mxPoint x="270" y="130"/>
                        </Array>
                    </mxGeometry>
                </mxCell>
                <mxCell id="17" style="edgeStyle=orthogonalEdgeStyle;rounded=0;orthogonalLoop=1;jettySize=auto;html=1;" parent="1" source="3" edge="1">
                    <mxGeometry relative="1" as="geometry">
                        <mxPoint x="350" y="295" as="targetPoint"/>
                        <Array as="points">
                            <mxPoint x="270" y="225"/>
                            <mxPoint x="270" y="295"/>
                        </Array>
                    </mxGeometry>
                </mxCell>
                <mxCell id="3" value="" style="whiteSpace=wrap;html=1;" parent="1" vertex="1">
                    <mxGeometry x="100" y="170" width="120" height="110" as="geometry"/>
                </mxCell>
                <mxCell id="4" value="アイテム2" style="whiteSpace=wrap;html=1;" parent="1" vertex="1">
                    <mxGeometry x="100" y="480" width="120" height="30" as="geometry"/>
                </mxCell>
                <mxCell id="18" style="edgeStyle=orthogonalEdgeStyle;rounded=0;orthogonalLoop=1;jettySize=auto;html=1;" parent="1" source="5" edge="1">
                    <mxGeometry relative="1" as="geometry">
                        <mxPoint x="350" y="465" as="targetPoint"/>
                        <Array as="points">
                            <mxPoint x="280" y="565"/>
                            <mxPoint x="280" y="465"/>
                        </Array>
                    </mxGeometry>
                </mxCell>
                <mxCell id="19" style="edgeStyle=orthogonalEdgeStyle;rounded=0;orthogonalLoop=1;jettySize=auto;html=1;entryX=-0.012;entryY=0.617;entryDx=0;entryDy=0;entryPerimeter=0;" parent="1" source="5" target="14" edge="1">
                    <mxGeometry relative="1" as="geometry">
                        <Array as="points">
                            <mxPoint x="280" y="565"/>
                            <mxPoint x="280" y="644"/>
                        </Array>
                    </mxGeometry>
                </mxCell>
                <mxCell id="5" value="" style="whiteSpace=wrap;html=1;" parent="1" vertex="1">
                    <mxGeometry x="100" y="510" width="120" height="110" as="geometry"/>
                </mxCell>
                <mxCell id="8" value="Room.first" style="whiteSpace=wrap;html=1;" parent="1" vertex="1">
                    <mxGeometry x="410" y="50" width="120" height="30" as="geometry"/>
                </mxCell>
                <mxCell id="10" value="決済後に､もう一つルームを作る&lt;br&gt;Item_id" style="whiteSpace=wrap;html=1;" parent="1" vertex="1">
                    <mxGeometry x="360" y="240" width="220" height="120" as="geometry"/>
                </mxCell>
                <mxCell id="11" value="Room.last" style="whiteSpace=wrap;html=1;" parent="1" vertex="1">
                    <mxGeometry x="410" y="220" width="120" height="30" as="geometry"/>
                </mxCell>
                <mxCell id="12" value="&lt;span&gt;オープンチャット&lt;br&gt;item_id&lt;br&gt;&lt;/span&gt;" style="whiteSpace=wrap;html=1;" parent="1" vertex="1">
                    <mxGeometry x="360" y="400" width="220" height="120" as="geometry"/>
                </mxCell>
                <mxCell id="13" value="Room.first" style="whiteSpace=wrap;html=1;" parent="1" vertex="1">
                    <mxGeometry x="410" y="380" width="120" height="30" as="geometry"/>
                </mxCell>
                <mxCell id="14" value="&lt;span&gt;プライベートチャット&lt;br&gt;item_id&lt;br&gt;&lt;/span&gt;" style="whiteSpace=wrap;html=1;" parent="1" vertex="1">
                    <mxGeometry x="360" y="570" width="220" height="120" as="geometry"/>
                </mxCell>
                <mxCell id="15" value="Room.last" style="whiteSpace=wrap;html=1;" parent="1" vertex="1">
                    <mxGeometry x="410" y="550" width="120" height="30" as="geometry"/>
                </mxCell>
                <mxCell id="20" value="&lt;span style=&quot;font-size: 18px&quot;&gt;出品時､item#create の最後に､@item.rooms.create!&lt;/span&gt;" style="text;html=1;align=center;verticalAlign=middle;resizable=0;points=[];autosize=1;" parent="1" vertex="1">
                    <mxGeometry x="530" y="30" width="430" height="20" as="geometry"/>
                </mxCell>
                <mxCell id="21" value="&lt;font style=&quot;font-size: 18px&quot;&gt;決済後､charges_controller#create の最後に､@item.rooms.create!&lt;/font&gt;" style="text;html=1;align=center;verticalAlign=middle;resizable=0;points=[];autosize=1;" parent="1" vertex="1">
                    <mxGeometry x="530" y="210" width="540" height="20" as="geometry"/>
                </mxCell>
                <mxCell id="24" value="" style="endArrow=classic;html=1;" parent="1" edge="1">
                    <mxGeometry width="50" height="50" relative="1" as="geometry">
                        <mxPoint x="690" y="250" as="sourcePoint"/>
                        <mxPoint x="600" y="290" as="targetPoint"/>
                    </mxGeometry>
                </mxCell>
                <mxCell id="25" value="" style="endArrow=classic;html=1;" parent="1" edge="1">
                    <mxGeometry width="50" height="50" relative="1" as="geometry">
                        <mxPoint x="680" y="60" as="sourcePoint"/>
                        <mxPoint x="590" y="100" as="targetPoint"/>
                    </mxGeometry>
                </mxCell>
                <mxCell id="26" value="一対多の場合､基本的にroomが持つitem_idは一つだけなので､中間テーブルはいらない" style="text;html=1;align=center;verticalAlign=middle;resizable=0;points=[];autosize=1;" parent="1" vertex="1">
                    <mxGeometry x="-220" y="80" width="480" height="20" as="geometry"/>
                </mxCell>
                <mxCell id="27" value="決済後に作られる､roomでは､ 出品者（@item.user_id） と 購入者（@item.buyer_id）だけがチャットをする｡&lt;br&gt;&lt;br&gt;だから､クローズチャットの場合､UserRoomモデルを作成して､user と room を結びつける必要がある｡" style="text;html=1;align=center;verticalAlign=middle;resizable=0;points=[];autosize=1;" parent="1" vertex="1">
                    <mxGeometry x="60" y="705" width="600" height="50" as="geometry"/>
                </mxCell>
                <mxCell id="41" style="edgeStyle=orthogonalEdgeStyle;rounded=0;orthogonalLoop=1;jettySize=auto;html=1;entryX=0.5;entryY=0;entryDx=0;entryDy=0;" parent="1" source="28" target="33" edge="1">
                    <mxGeometry relative="1" as="geometry">
                        <Array as="points">
                            <mxPoint x="1550" y="530"/>
                            <mxPoint x="2290" y="530"/>
                        </Array>
                    </mxGeometry>
                </mxCell>
                <mxCell id="28" value="&lt;span&gt;&lt;br&gt;has_many: items&lt;br&gt;&lt;/span&gt;&lt;br&gt;has_many: chats&lt;br&gt;&lt;br&gt;has_many: user_rooms&lt;br&gt;&lt;span&gt;&lt;br&gt;has_many: likes&lt;br&gt;&lt;/span&gt;" style="whiteSpace=wrap;html=1;" parent="1" vertex="1">
                    <mxGeometry x="1440" y="580" width="220" height="140" as="geometry"/>
                </mxCell>
                <mxCell id="29" value="User" style="whiteSpace=wrap;html=1;" parent="1" vertex="1">
                    <mxGeometry x="1490" y="560" width="120" height="30" as="geometry"/>
                </mxCell>
                <mxCell id="54" style="edgeStyle=orthogonalEdgeStyle;rounded=0;orthogonalLoop=1;jettySize=auto;html=1;entryX=0.5;entryY=1;entryDx=0;entryDy=0;" parent="1" source="30" target="32" edge="1">
                    <mxGeometry relative="1" as="geometry">
                        <Array as="points">
                            <mxPoint x="1555" y="990"/>
                            <mxPoint x="2290" y="990"/>
                        </Array>
                    </mxGeometry>
                </mxCell>
                <mxCell id="30" value="&lt;span&gt;&lt;br&gt;has_many: rooms&lt;br&gt;&lt;/span&gt;&lt;br&gt;has_many: chats&lt;br&gt;&lt;br&gt;belongs_to: user&lt;br&gt;&lt;br&gt;belongs_to: category&lt;br&gt;&lt;span&gt;&lt;br&gt;&lt;/span&gt;has_many: likes&lt;span&gt;&lt;br&gt;&lt;/span&gt;" style="whiteSpace=wrap;html=1;" parent="1" vertex="1">
                    <mxGeometry x="1445" y="810" width="220" height="150" as="geometry"/>
                </mxCell>
                <mxCell id="31" value="Item" style="whiteSpace=wrap;html=1;" parent="1" vertex="1">
                    <mxGeometry x="1495" y="790" width="120" height="30" as="geometry"/>
                </mxCell>
                <mxCell id="32" value="&lt;span&gt;&lt;br&gt;has_many: user_rooms&lt;br&gt;&lt;/span&gt;&lt;br&gt;has_many: chats&lt;br&gt;&lt;br&gt;has_many: users&amp;nbsp;&lt;br&gt;&lt;br&gt;belongs_to: item&lt;span&gt;&lt;br&gt;&lt;/span&gt;" style="whiteSpace=wrap;html=1;" parent="1" vertex="1">
                    <mxGeometry x="2180" y="570" width="220" height="120" as="geometry"/>
                </mxCell>
                <mxCell id="33" value="Room" style="whiteSpace=wrap;html=1;" parent="1" vertex="1">
                    <mxGeometry x="2230" y="550" width="120" height="30" as="geometry"/>
                </mxCell>
                <mxCell id="34" value="belongs_to: user&lt;br&gt;&lt;br&gt;belongs_to: room&lt;br&gt;&lt;span&gt;&lt;br&gt;belongs_to: item&lt;br&gt;&lt;/span&gt;" style="whiteSpace=wrap;html=1;" parent="1" vertex="1">
                    <mxGeometry x="1830" y="810" width="220" height="120" as="geometry"/>
                </mxCell>
                <mxCell id="35" value="Chat" style="whiteSpace=wrap;html=1;" parent="1" vertex="1">
                    <mxGeometry x="1880" y="790" width="120" height="30" as="geometry"/>
                </mxCell>
                <mxCell id="36" value="belongs_to: user&lt;br&gt;&lt;br&gt;belongs_to: room&lt;br&gt;&lt;span&gt;&lt;br&gt;&lt;/span&gt;" style="whiteSpace=wrap;html=1;" parent="1" vertex="1">
                    <mxGeometry x="1810" y="570" width="220" height="120" as="geometry"/>
                </mxCell>
                <mxCell id="37" value="User_Room" style="whiteSpace=wrap;html=1;" parent="1" vertex="1">
                    <mxGeometry x="1860" y="550" width="120" height="30" as="geometry"/>
                </mxCell>
                <mxCell id="38" value="&lt;span&gt;has_many: items&lt;br&gt;&lt;/span&gt;" style="whiteSpace=wrap;html=1;" parent="1" vertex="1">
                    <mxGeometry x="1190" y="810" width="220" height="120" as="geometry"/>
                </mxCell>
                <mxCell id="39" value="category" style="whiteSpace=wrap;html=1;" parent="1" vertex="1">
                    <mxGeometry x="1240" y="790" width="120" height="30" as="geometry"/>
                </mxCell>
                <mxCell id="45" value="" style="shape=link;html=1;" parent="1" edge="1">
                    <mxGeometry width="100" relative="1" as="geometry">
                        <mxPoint x="1660" y="640" as="sourcePoint"/>
                        <mxPoint x="1810" y="640" as="targetPoint"/>
                    </mxGeometry>
                </mxCell>
                <mxCell id="46" value="" style="shape=link;html=1;" parent="1" edge="1">
                    <mxGeometry width="100" relative="1" as="geometry">
                        <mxPoint x="2030" y="639.5" as="sourcePoint"/>
                        <mxPoint x="2180" y="639.5" as="targetPoint"/>
                    </mxGeometry>
                </mxCell>
                <mxCell id="47" value="" style="shape=link;html=1;width=-5;entryX=0.007;entryY=0.579;entryDx=0;entryDy=0;entryPerimeter=0;" parent="1" target="30" edge="1">
                    <mxGeometry width="100" relative="1" as="geometry">
                        <mxPoint x="1410" y="879" as="sourcePoint"/>
                        <mxPoint x="1440" y="879" as="targetPoint"/>
                    </mxGeometry>
                </mxCell>
                <mxCell id="49" value="" style="shape=link;html=1;entryX=0.5;entryY=0;entryDx=0;entryDy=0;" parent="1" target="31" edge="1">
                    <mxGeometry width="100" relative="1" as="geometry">
                        <mxPoint x="1555" y="720" as="sourcePoint"/>
                        <mxPoint x="1555" y="780" as="targetPoint"/>
                    </mxGeometry>
                </mxCell>
                <mxCell id="52" value="" style="shape=link;html=1;entryX=0;entryY=0;entryDx=0;entryDy=0;" parent="1" target="34" edge="1">
                    <mxGeometry width="100" relative="1" as="geometry">
                        <mxPoint x="1660" y="710" as="sourcePoint"/>
                        <mxPoint x="1810" y="800" as="targetPoint"/>
                    </mxGeometry>
                </mxCell>
                <mxCell id="53" value="" style="shape=link;html=1;entryX=0;entryY=1;entryDx=0;entryDy=0;" parent="1" target="32" edge="1">
                    <mxGeometry width="100" relative="1" as="geometry">
                        <mxPoint x="2050" y="810" as="sourcePoint"/>
                        <mxPoint x="2220" y="910" as="targetPoint"/>
                    </mxGeometry>
                </mxCell>
                <mxCell id="67" value="&lt;span style=&quot;font-size: 18px&quot;&gt;current_user.chats.select(:item_id).distinct&amp;nbsp; で､ item_id の配列ゲット&lt;/span&gt;" style="text;html=1;align=left;verticalAlign=middle;resizable=0;points=[];autosize=1;" parent="1" vertex="1">
                    <mxGeometry x="50" y="890" width="560" height="20" as="geometry"/>
                </mxCell>
                <mxCell id="69" value="" style="shape=link;html=1;entryX=0;entryY=0.5;entryDx=0;entryDy=0;" parent="1" target="34" edge="1">
                    <mxGeometry width="100" relative="1" as="geometry">
                        <mxPoint x="1665" y="869.5" as="sourcePoint"/>
                        <mxPoint x="1815" y="869.5" as="targetPoint"/>
                    </mxGeometry>
                </mxCell>
                <mxCell id="100" value="&lt;span&gt;&lt;br&gt;has_many: items&lt;br&gt;&lt;/span&gt;&lt;br&gt;has_many: chats&lt;br&gt;&lt;br&gt;has_many: user_rooms&lt;br&gt;&lt;span&gt;&lt;br&gt;&lt;/span&gt;" style="whiteSpace=wrap;html=1;" parent="1" vertex="1">
                    <mxGeometry y="960" width="220" height="120" as="geometry"/>
                </mxCell>
                <mxCell id="101" value="User" style="whiteSpace=wrap;html=1;" parent="1" vertex="1">
                    <mxGeometry x="50" y="940" width="120" height="30" as="geometry"/>
                </mxCell>
                <mxCell id="102" value="&lt;br&gt;has_many: rooms&lt;br&gt;&lt;br&gt;belongs_to: user&lt;br&gt;&lt;br&gt;belongs_to: category" style="whiteSpace=wrap;html=1;" parent="1" vertex="1">
                    <mxGeometry x="470" y="960" width="220" height="120" as="geometry"/>
                </mxCell>
                <mxCell id="103" value="item" style="whiteSpace=wrap;html=1;" parent="1" vertex="1">
                    <mxGeometry x="520" y="940" width="120" height="30" as="geometry"/>
                </mxCell>
                <mxCell id="104" value="belongs_to: user&lt;br&gt;&lt;br&gt;belongs_to: room&lt;br&gt;&lt;br&gt;belongs_to: item&lt;span&gt;&lt;br&gt;&lt;/span&gt;" style="whiteSpace=wrap;html=1;" parent="1" vertex="1">
                    <mxGeometry x="250" y="980" width="180" height="90" as="geometry"/>
                </mxCell>
                <mxCell id="105" value="chat" style="whiteSpace=wrap;html=1;" parent="1" vertex="1">
                    <mxGeometry x="300" y="960" width="70" height="30" as="geometry"/>
                </mxCell>
                <mxCell id="106" value="" style="shape=link;html=1;width=6;" parent="1" edge="1">
                    <mxGeometry width="100" relative="1" as="geometry">
                        <mxPoint x="220" y="1024.5" as="sourcePoint"/>
                        <mxPoint x="250" y="1025" as="targetPoint"/>
                    </mxGeometry>
                </mxCell>
                <mxCell id="107" value="" style="shape=link;html=1;width=6;entryX=0;entryY=0.5;entryDx=0;entryDy=0;" parent="1" target="102" edge="1">
                    <mxGeometry width="100" relative="1" as="geometry">
                        <mxPoint x="430" y="1020" as="sourcePoint"/>
                        <mxPoint x="460" y="1020.5" as="targetPoint"/>
                    </mxGeometry>
                </mxCell>
                <mxCell id="112" value="&lt;font style=&quot;font-size: 18px&quot;&gt;&lt;br&gt;item_id 1&lt;br&gt;&lt;br&gt;item_id 2&lt;br&gt;&lt;br&gt;item_id 3&lt;br&gt;&lt;br&gt;item_id 4&lt;br&gt;&lt;br&gt;item_id 5&lt;br&gt;&lt;br&gt;&lt;/font&gt;" style="text;html=1;align=center;verticalAlign=middle;resizable=0;points=[];autosize=1;" parent="1" vertex="1">
                    <mxGeometry x="820" y="930" width="90" height="170" as="geometry"/>
                </mxCell>
                <mxCell id="113" value="" style="shape=flexArrow;endArrow=classic;html=1;exitX=1;exitY=0.5;exitDx=0;exitDy=0;" parent="1" edge="1">
                    <mxGeometry width="50" height="50" relative="1" as="geometry">
                        <mxPoint x="700" y="1015" as="sourcePoint"/>
                        <mxPoint x="790" y="1015" as="targetPoint"/>
                    </mxGeometry>
                </mxCell>
                <mxCell id="115" value="&lt;span&gt;&lt;br&gt;has_many: items&lt;br&gt;&lt;/span&gt;&lt;br&gt;has_many: chats&lt;br&gt;&lt;br&gt;has_many: user_rooms&lt;br&gt;&lt;span&gt;&lt;br&gt;&lt;/span&gt;" style="whiteSpace=wrap;html=1;" parent="1" vertex="1">
                    <mxGeometry x="20" y="1300" width="220" height="120" as="geometry"/>
                </mxCell>
                <mxCell id="116" value="User" style="whiteSpace=wrap;html=1;" parent="1" vertex="1">
                    <mxGeometry x="70" y="1280" width="120" height="30" as="geometry"/>
                </mxCell>
                <mxCell id="117" value="&lt;span&gt;&lt;br&gt;has_many: user_rooms&lt;br&gt;&lt;/span&gt;&lt;br&gt;has_many: chats&lt;br&gt;&lt;br&gt;has_many: users&amp;nbsp;&lt;br&gt;&lt;br&gt;belongs_to: item&lt;span&gt;&lt;br&gt;&lt;/span&gt;" style="whiteSpace=wrap;html=1;" parent="1" vertex="1">
                    <mxGeometry x="490" y="1300" width="220" height="120" as="geometry"/>
                </mxCell>
                <mxCell id="118" value="Room" style="whiteSpace=wrap;html=1;" parent="1" vertex="1">
                    <mxGeometry x="540" y="1280" width="120" height="30" as="geometry"/>
                </mxCell>
                <mxCell id="119" value="&lt;font style=&quot;font-size: 18px&quot;&gt;room_ids = current_user.rooms.distinct&lt;/font&gt;" style="text;html=1;align=center;verticalAlign=middle;resizable=0;points=[];autosize=1;" parent="1" vertex="1">
                    <mxGeometry x="170" y="1240" width="330" height="20" as="geometry"/>
                </mxCell>
                <mxCell id="120" value="belongs_to: user&lt;br&gt;&lt;br&gt;belongs_to: room" style="whiteSpace=wrap;html=1;" parent="1" vertex="1">
                    <mxGeometry x="270" y="1320" width="180" height="90" as="geometry"/>
                </mxCell>
                <mxCell id="121" value="User_Room" style="whiteSpace=wrap;html=1;" parent="1" vertex="1">
                    <mxGeometry x="320" y="1300" width="70" height="30" as="geometry"/>
                </mxCell>
                <mxCell id="122" value="&lt;font style=&quot;font-size: 18px&quot;&gt;&lt;br&gt;item_id 1&lt;br&gt;&lt;br&gt;item_id 2&lt;br&gt;&lt;br&gt;item_id 3&lt;br&gt;&lt;br&gt;item_id 4&lt;br&gt;&lt;br&gt;item_id 5&lt;br&gt;&lt;/font&gt;" style="text;html=1;align=center;verticalAlign=middle;resizable=0;points=[];autosize=1;" parent="1" vertex="1">
                    <mxGeometry x="830" y="1280" width="90" height="160" as="geometry"/>
                </mxCell>
                <mxCell id="123" value="" style="shape=flexArrow;endArrow=classic;html=1;exitX=1;exitY=0.5;exitDx=0;exitDy=0;" parent="1" source="117" edge="1">
                    <mxGeometry width="50" height="50" relative="1" as="geometry">
                        <mxPoint x="500" y="1320" as="sourcePoint"/>
                        <mxPoint x="800" y="1360" as="targetPoint"/>
                    </mxGeometry>
                </mxCell>
                <mxCell id="125" value="" style="shape=link;html=1;width=6;" parent="1" edge="1">
                    <mxGeometry width="100" relative="1" as="geometry">
                        <mxPoint x="240" y="1364.5" as="sourcePoint"/>
                        <mxPoint x="270" y="1365" as="targetPoint"/>
                    </mxGeometry>
                </mxCell>
                <mxCell id="126" value="" style="shape=link;html=1;width=6;entryX=0;entryY=0.5;entryDx=0;entryDy=0;" parent="1" target="117" edge="1">
                    <mxGeometry width="100" relative="1" as="geometry">
                        <mxPoint x="450" y="1360" as="sourcePoint"/>
                        <mxPoint x="480" y="1360.5" as="targetPoint"/>
                    </mxGeometry>
                </mxCell>
                <mxCell id="127" value="&lt;span&gt;belongs_to: user&lt;br&gt;&lt;br&gt;&lt;br&gt;&lt;/span&gt;" style="whiteSpace=wrap;html=1;" parent="1" vertex="1">
                    <mxGeometry x="1183.46" y="570" width="220" height="120" as="geometry"/>
                </mxCell>
                <mxCell id="128" value="Assessmant" style="whiteSpace=wrap;html=1;" parent="1" vertex="1">
                    <mxGeometry x="1233.46" y="550" width="120" height="30" as="geometry"/>
                </mxCell>
                <mxCell id="129" value="" style="shape=link;html=1;width=-5;entryX=0.007;entryY=0.579;entryDx=0;entryDy=0;entryPerimeter=0;" parent="1" edge="1">
                    <mxGeometry width="100" relative="1" as="geometry">
                        <mxPoint x="1403.46" y="639" as="sourcePoint"/>
                        <mxPoint x="1440" y="639.48" as="targetPoint"/>
                    </mxGeometry>
                </mxCell>
                <mxCell id="130" value="&lt;span&gt;&lt;br&gt;has_many: items&lt;br&gt;&lt;/span&gt;&lt;br&gt;has_many: chats&lt;br&gt;&lt;br&gt;has_many: user_rooms&lt;br&gt;&lt;span&gt;&lt;br&gt;&lt;/span&gt;" style="whiteSpace=wrap;html=1;" parent="1" vertex="1">
                    <mxGeometry x="1510" y="1180" width="220" height="120" as="geometry"/>
                </mxCell>
                <mxCell id="131" value="User" style="whiteSpace=wrap;html=1;" parent="1" vertex="1">
                    <mxGeometry x="1560" y="1160" width="120" height="30" as="geometry"/>
                </mxCell>
                <mxCell id="132" value="&lt;span&gt;&lt;br&gt;has_many: rooms&lt;br&gt;&lt;/span&gt;&lt;br&gt;has_many: chats&lt;br&gt;&lt;br&gt;belongs_to: user&lt;br&gt;&lt;br&gt;belongs_to: category&lt;br&gt;&lt;span&gt;&lt;br&gt;&lt;/span&gt;" style="whiteSpace=wrap;html=1;" parent="1" vertex="1">
                    <mxGeometry x="1515" y="1410" width="220" height="120" as="geometry"/>
                </mxCell>
                <mxCell id="133" value="Item" style="whiteSpace=wrap;html=1;" parent="1" vertex="1">
                    <mxGeometry x="1565" y="1390" width="120" height="30" as="geometry"/>
                </mxCell>
                <mxCell id="135" value="" style="shape=link;html=1;" parent="1" edge="1">
                    <mxGeometry width="100" relative="1" as="geometry">
                        <mxPoint x="1624.5" y="1300" as="sourcePoint"/>
                        <mxPoint x="1625" y="1380" as="targetPoint"/>
                    </mxGeometry>
                </mxCell>
                <mxCell id="137" value="&lt;span&gt;belongs_to: user&lt;br&gt;&lt;br&gt;&lt;/span&gt;belongs_to: item&lt;span&gt;&lt;br&gt;&lt;/span&gt;" style="whiteSpace=wrap;html=1;" parent="1" vertex="1">
                    <mxGeometry x="1810" y="1290" width="220" height="120" as="geometry"/>
                </mxCell>
                <mxCell id="138" value="Like" style="whiteSpace=wrap;html=1;" parent="1" vertex="1">
                    <mxGeometry x="1860" y="1270" width="120" height="30" as="geometry"/>
                </mxCell>
                <mxCell id="141" value="" style="shape=link;html=1;exitX=1;exitY=0.5;exitDx=0;exitDy=0;entryX=0.578;entryY=-0.022;entryDx=0;entryDy=0;entryPerimeter=0;" parent="1" source="130" target="138" edge="1">
                    <mxGeometry width="100" relative="1" as="geometry">
                        <mxPoint x="1910" y="1210" as="sourcePoint"/>
                        <mxPoint x="1910.5" y="1290" as="targetPoint"/>
                    </mxGeometry>
                </mxCell>
                <mxCell id="142" value="" style="shape=link;html=1;exitX=1;exitY=0.5;exitDx=0;exitDy=0;entryX=0.552;entryY=1.019;entryDx=0;entryDy=0;entryPerimeter=0;" parent="1" target="137" edge="1">
                    <mxGeometry width="100" relative="1" as="geometry">
                        <mxPoint x="1735" y="1470" as="sourcePoint"/>
                        <mxPoint x="1934.3600000000001" y="1499.34" as="targetPoint"/>
                    </mxGeometry>
                </mxCell>
                <mxCell id="145" value="belongs_to: user&lt;br&gt;&lt;br&gt;belongs_to: room&lt;br&gt;&lt;span&gt;&lt;br&gt;belongs_to: item&lt;br&gt;&lt;/span&gt;" style="whiteSpace=wrap;html=1;" parent="1" vertex="1">
                    <mxGeometry x="1240" y="1300" width="220" height="120" as="geometry"/>
                </mxCell>
                <mxCell id="146" value="Chat" style="whiteSpace=wrap;html=1;" parent="1" vertex="1">
                    <mxGeometry x="1290" y="1280" width="120" height="30" as="geometry"/>
                </mxCell>
                <mxCell id="147" value="" style="shape=link;html=1;entryX=0.5;entryY=0;entryDx=0;entryDy=0;exitX=0;exitY=0.5;exitDx=0;exitDy=0;" parent="1" source="130" target="146" edge="1">
                    <mxGeometry width="100" relative="1" as="geometry">
                        <mxPoint x="1160" y="1250" as="sourcePoint"/>
                        <mxPoint x="1310" y="1340" as="targetPoint"/>
                    </mxGeometry>
                </mxCell>
                <mxCell id="148" value="" style="shape=link;html=1;entryX=0.5;entryY=1;entryDx=0;entryDy=0;exitX=0;exitY=0.5;exitDx=0;exitDy=0;" parent="1" source="132" target="145" edge="1">
                    <mxGeometry width="100" relative="1" as="geometry">
                        <mxPoint x="1165" y="1409.5" as="sourcePoint"/>
                        <mxPoint x="1315" y="1409.5" as="targetPoint"/>
                    </mxGeometry>
                </mxCell>
                <mxCell id="163" style="edgeStyle=orthogonalEdgeStyle;rounded=0;orthogonalLoop=1;jettySize=auto;html=1;entryX=-0.015;entryY=0.459;entryDx=0;entryDy=0;entryPerimeter=0;" parent="1" source="149" edge="1">
                    <mxGeometry relative="1" as="geometry">
                        <mxPoint x="2506.7" y="1529.0100000000002" as="targetPoint"/>
                    </mxGeometry>
                </mxCell>
                <mxCell id="149" value="&lt;span&gt;&lt;br&gt;has_many: items&lt;br&gt;&lt;/span&gt;&lt;br&gt;has_many: chats&lt;br&gt;&lt;br&gt;has_many: user_rooms&lt;br&gt;&lt;span&gt;&lt;br&gt;&lt;/span&gt;" style="whiteSpace=wrap;html=1;" parent="1" vertex="1">
                    <mxGeometry x="2150" y="1280" width="220" height="120" as="geometry"/>
                </mxCell>
                <mxCell id="150" value="User" style="whiteSpace=wrap;html=1;" parent="1" vertex="1">
                    <mxGeometry x="2200" y="1260" width="120" height="30" as="geometry"/>
                </mxCell>
                <mxCell id="164" style="edgeStyle=orthogonalEdgeStyle;rounded=0;orthogonalLoop=1;jettySize=auto;html=1;entryX=-0.024;entryY=0.459;entryDx=0;entryDy=0;entryPerimeter=0;" parent="1" source="151" edge="1">
                    <mxGeometry relative="1" as="geometry">
                        <mxPoint x="2504.7200000000003" y="1529.0100000000002" as="targetPoint"/>
                    </mxGeometry>
                </mxCell>
                <mxCell id="151" value="&lt;span&gt;&lt;br&gt;has_many: items&lt;br&gt;&lt;/span&gt;&lt;br&gt;has_many: chats&lt;br&gt;&lt;br&gt;has_many: user_rooms&lt;br&gt;&lt;span&gt;&lt;br&gt;&lt;/span&gt;" style="whiteSpace=wrap;html=1;" parent="1" vertex="1">
                    <mxGeometry x="2150" y="1470" width="220" height="120" as="geometry"/>
                </mxCell>
                <mxCell id="152" value="User" style="whiteSpace=wrap;html=1;" parent="1" vertex="1">
                    <mxGeometry x="2200" y="1450" width="120" height="30" as="geometry"/>
                </mxCell>
                <mxCell id="166" style="edgeStyle=orthogonalEdgeStyle;rounded=0;orthogonalLoop=1;jettySize=auto;html=1;entryX=-0.02;entryY=0.454;entryDx=0;entryDy=0;entryPerimeter=0;" parent="1" source="153" edge="1">
                    <mxGeometry relative="1" as="geometry">
                        <mxPoint x="2505.6000000000004" y="1527.06" as="targetPoint"/>
                    </mxGeometry>
                </mxCell>
                <mxCell id="153" value="&lt;span&gt;&lt;br&gt;has_many: items&lt;br&gt;&lt;/span&gt;&lt;br&gt;has_many: chats&lt;br&gt;&lt;br&gt;has_many: user_rooms&lt;br&gt;&lt;span&gt;&lt;br&gt;&lt;/span&gt;" style="whiteSpace=wrap;html=1;" parent="1" vertex="1">
                    <mxGeometry x="2150" y="1680" width="220" height="120" as="geometry"/>
                </mxCell>
                <mxCell id="154" value="User" style="whiteSpace=wrap;html=1;" parent="1" vertex="1">
                    <mxGeometry x="2200" y="1660" width="120" height="30" as="geometry"/>
                </mxCell>
                <mxCell id="170" style="edgeStyle=orthogonalEdgeStyle;rounded=0;orthogonalLoop=1;jettySize=auto;html=1;entryX=1.007;entryY=0.468;entryDx=0;entryDy=0;entryPerimeter=0;" parent="1" source="155" edge="1">
                    <mxGeometry relative="1" as="geometry">
                        <mxPoint x="2731.54" y="1532.52" as="targetPoint"/>
                    </mxGeometry>
                </mxCell>
                <mxCell id="155" value="&lt;span&gt;&lt;br&gt;has_many: items&lt;br&gt;&lt;/span&gt;&lt;br&gt;has_many: chats&lt;br&gt;&lt;br&gt;has_many: user_rooms&lt;br&gt;&lt;span&gt;&lt;br&gt;&lt;/span&gt;" style="whiteSpace=wrap;html=1;" parent="1" vertex="1">
                    <mxGeometry x="2920" y="1280" width="220" height="120" as="geometry"/>
                </mxCell>
                <mxCell id="156" value="User" style="whiteSpace=wrap;html=1;" parent="1" vertex="1">
                    <mxGeometry x="2970" y="1260" width="120" height="30" as="geometry"/>
                </mxCell>
                <mxCell id="168" style="edgeStyle=orthogonalEdgeStyle;rounded=0;orthogonalLoop=1;jettySize=auto;html=1;" parent="1" source="157" edge="1">
                    <mxGeometry relative="1" as="geometry">
                        <mxPoint x="2740" y="1530" as="targetPoint"/>
                    </mxGeometry>
                </mxCell>
                <mxCell id="157" value="&lt;span&gt;&lt;br&gt;has_many: items&lt;br&gt;&lt;/span&gt;&lt;br&gt;has_many: chats&lt;br&gt;&lt;br&gt;has_many: user_rooms&lt;br&gt;&lt;span&gt;&lt;br&gt;&lt;/span&gt;" style="whiteSpace=wrap;html=1;" parent="1" vertex="1">
                    <mxGeometry x="2920" y="1470" width="220" height="120" as="geometry"/>
                </mxCell>
                <mxCell id="158" value="User" style="whiteSpace=wrap;html=1;" parent="1" vertex="1">
                    <mxGeometry x="2970" y="1450" width="120" height="30" as="geometry"/>
                </mxCell>
                <mxCell id="169" style="edgeStyle=orthogonalEdgeStyle;rounded=0;orthogonalLoop=1;jettySize=auto;html=1;entryX=1.016;entryY=0.463;entryDx=0;entryDy=0;entryPerimeter=0;" parent="1" source="159" edge="1">
                    <mxGeometry relative="1" as="geometry">
                        <mxPoint x="2733.5200000000004" y="1530.5700000000002" as="targetPoint"/>
                    </mxGeometry>
                </mxCell>
                <mxCell id="159" value="&lt;span&gt;&lt;br&gt;has_many: items&lt;br&gt;&lt;/span&gt;&lt;br&gt;has_many: chats&lt;br&gt;&lt;br&gt;has_many: user_rooms&lt;br&gt;&lt;span&gt;&lt;br&gt;&lt;/span&gt;" style="whiteSpace=wrap;html=1;" parent="1" vertex="1">
                    <mxGeometry x="2920" y="1680" width="220" height="120" as="geometry"/>
                </mxCell>
                <mxCell id="160" value="User" style="whiteSpace=wrap;html=1;" parent="1" vertex="1">
                    <mxGeometry x="2970" y="1660" width="120" height="30" as="geometry"/>
                </mxCell>
                <mxCell id="162" value="Relation" style="whiteSpace=wrap;html=1;" parent="1" vertex="1">
                    <mxGeometry x="2560" y="1330" width="120" height="30" as="geometry"/>
                </mxCell>
                <mxCell id="180" value="" style="shape=table;html=1;whiteSpace=wrap;startSize=0;container=1;collapsible=0;childLayout=tableLayout;" parent="1" vertex="1">
                    <mxGeometry x="2510" y="1380" width="220" height="310" as="geometry"/>
                </mxCell>
                <mxCell id="181" value="" style="shape=partialRectangle;html=1;whiteSpace=wrap;collapsible=0;dropTarget=0;pointerEvents=0;fillColor=none;top=0;left=0;bottom=0;right=0;points=[[0,0.5],[1,0.5]];portConstraint=eastwest;" parent="180" vertex="1">
                    <mxGeometry width="220" height="52" as="geometry"/>
                </mxCell>
                <mxCell id="182" value="id" style="shape=partialRectangle;html=1;whiteSpace=wrap;connectable=0;overflow=hidden;fillColor=none;top=0;left=0;bottom=0;right=0;" parent="181" vertex="1">
                    <mxGeometry width="49" height="52" as="geometry"/>
                </mxCell>
                <mxCell id="183" value="user_id" style="shape=partialRectangle;html=1;whiteSpace=wrap;connectable=0;overflow=hidden;fillColor=none;top=0;left=0;bottom=0;right=0;" parent="181" vertex="1">
                    <mxGeometry x="49" width="85" height="52" as="geometry"/>
                </mxCell>
                <mxCell id="184" value="follower_id" style="shape=partialRectangle;html=1;whiteSpace=wrap;connectable=0;overflow=hidden;fillColor=none;top=0;left=0;bottom=0;right=0;" parent="181" vertex="1">
                    <mxGeometry x="134" width="86" height="52" as="geometry"/>
                </mxCell>
                <mxCell id="185" value="" style="shape=partialRectangle;html=1;whiteSpace=wrap;collapsible=0;dropTarget=0;pointerEvents=0;fillColor=none;top=0;left=0;bottom=0;right=0;points=[[0,0.5],[1,0.5]];portConstraint=eastwest;" parent="180" vertex="1">
                    <mxGeometry y="52" width="220" height="51" as="geometry"/>
                </mxCell>
                <mxCell id="186" value="1" style="shape=partialRectangle;html=1;whiteSpace=wrap;connectable=0;overflow=hidden;fillColor=none;top=0;left=0;bottom=0;right=0;" parent="185" vertex="1">
                    <mxGeometry width="49" height="51" as="geometry"/>
                </mxCell>
                <mxCell id="187" value="10" style="shape=partialRectangle;html=1;whiteSpace=wrap;connectable=0;overflow=hidden;fillColor=none;top=0;left=0;bottom=0;right=0;" parent="185" vertex="1">
                    <mxGeometry x="49" width="85" height="51" as="geometry"/>
                </mxCell>
                <mxCell id="188" value="44" style="shape=partialRectangle;html=1;whiteSpace=wrap;connectable=0;overflow=hidden;fillColor=none;top=0;left=0;bottom=0;right=0;" parent="185" vertex="1">
                    <mxGeometry x="134" width="86" height="51" as="geometry"/>
                </mxCell>
                <mxCell id="189" value="" style="shape=partialRectangle;html=1;whiteSpace=wrap;collapsible=0;dropTarget=0;pointerEvents=0;fillColor=none;top=0;left=0;bottom=0;right=0;points=[[0,0.5],[1,0.5]];portConstraint=eastwest;" parent="180" vertex="1">
                    <mxGeometry y="103" width="220" height="52" as="geometry"/>
                </mxCell>
                <mxCell id="190" value="2" style="shape=partialRectangle;html=1;whiteSpace=wrap;connectable=0;overflow=hidden;fillColor=none;top=0;left=0;bottom=0;right=0;" parent="189" vertex="1">
                    <mxGeometry width="49" height="52" as="geometry"/>
                </mxCell>
                <mxCell id="191" value="12" style="shape=partialRectangle;html=1;whiteSpace=wrap;connectable=0;overflow=hidden;fillColor=none;top=0;left=0;bottom=0;right=0;" parent="189" vertex="1">
                    <mxGeometry x="49" width="85" height="52" as="geometry"/>
                </mxCell>
                <mxCell id="192" value="67" style="shape=partialRectangle;html=1;whiteSpace=wrap;connectable=0;overflow=hidden;fillColor=none;top=0;left=0;bottom=0;right=0;" parent="189" vertex="1">
                    <mxGeometry x="134" width="86" height="52" as="geometry"/>
                </mxCell>
                <mxCell id="193" value="" style="shape=partialRectangle;html=1;whiteSpace=wrap;collapsible=0;dropTarget=0;pointerEvents=0;fillColor=none;top=0;left=0;bottom=0;right=0;points=[[0,0.5],[1,0.5]];portConstraint=eastwest;" parent="180" vertex="1">
                    <mxGeometry y="155" width="220" height="52" as="geometry"/>
                </mxCell>
                <mxCell id="194" value="3" style="shape=partialRectangle;html=1;whiteSpace=wrap;connectable=0;overflow=hidden;fillColor=none;top=0;left=0;bottom=0;right=0;" parent="193" vertex="1">
                    <mxGeometry width="49" height="52" as="geometry"/>
                </mxCell>
                <mxCell id="195" value="32" style="shape=partialRectangle;html=1;whiteSpace=wrap;connectable=0;overflow=hidden;fillColor=none;top=0;left=0;bottom=0;right=0;" parent="193" vertex="1">
                    <mxGeometry x="49" width="85" height="52" as="geometry"/>
                </mxCell>
                <mxCell id="196" value="11" style="shape=partialRectangle;html=1;whiteSpace=wrap;connectable=0;overflow=hidden;fillColor=none;top=0;left=0;bottom=0;right=0;" parent="193" vertex="1">
                    <mxGeometry x="134" width="86" height="52" as="geometry"/>
                </mxCell>
                <mxCell id="197" value="" style="shape=partialRectangle;html=1;whiteSpace=wrap;collapsible=0;dropTarget=0;pointerEvents=0;fillColor=none;top=0;left=0;bottom=0;right=0;points=[[0,0.5],[1,0.5]];portConstraint=eastwest;" parent="180" vertex="1">
                    <mxGeometry y="207" width="220" height="51" as="geometry"/>
                </mxCell>
                <mxCell id="198" value="4" style="shape=partialRectangle;html=1;whiteSpace=wrap;connectable=0;overflow=hidden;fillColor=none;top=0;left=0;bottom=0;right=0;" parent="197" vertex="1">
                    <mxGeometry width="49" height="51" as="geometry"/>
                </mxCell>
                <mxCell id="199" value="54" style="shape=partialRectangle;html=1;whiteSpace=wrap;connectable=0;overflow=hidden;fillColor=none;top=0;left=0;bottom=0;right=0;" parent="197" vertex="1">
                    <mxGeometry x="49" width="85" height="51" as="geometry"/>
                </mxCell>
                <mxCell id="200" value="78" style="shape=partialRectangle;html=1;whiteSpace=wrap;connectable=0;overflow=hidden;fillColor=none;top=0;left=0;bottom=0;right=0;" parent="197" vertex="1">
                    <mxGeometry x="134" width="86" height="51" as="geometry"/>
                </mxCell>
                <mxCell id="201" value="" style="shape=partialRectangle;html=1;whiteSpace=wrap;collapsible=0;dropTarget=0;pointerEvents=0;fillColor=none;top=0;left=0;bottom=0;right=0;points=[[0,0.5],[1,0.5]];portConstraint=eastwest;" parent="180" vertex="1">
                    <mxGeometry y="258" width="220" height="52" as="geometry"/>
                </mxCell>
                <mxCell id="202" value="5" style="shape=partialRectangle;html=1;whiteSpace=wrap;connectable=0;overflow=hidden;fillColor=none;top=0;left=0;bottom=0;right=0;" parent="201" vertex="1">
                    <mxGeometry width="49" height="52" as="geometry"/>
                </mxCell>
                <mxCell id="203" value="33" style="shape=partialRectangle;html=1;whiteSpace=wrap;connectable=0;overflow=hidden;fillColor=none;top=0;left=0;bottom=0;right=0;" parent="201" vertex="1">
                    <mxGeometry x="49" width="85" height="52" as="geometry"/>
                </mxCell>
                <mxCell id="204" value="9" style="shape=partialRectangle;html=1;whiteSpace=wrap;connectable=0;overflow=hidden;fillColor=none;top=0;left=0;bottom=0;right=0;" parent="201" vertex="1">
                    <mxGeometry x="134" width="86" height="52" as="geometry"/>
                </mxCell>
                <mxCell id="205" value="&lt;font style=&quot;font-size: 18px&quot;&gt;Relationモデルでuser_idが2つないのは2つあるとどっちがどっちか見分けがつかなくなるから｡　だから､user_idとfollower_id(user_id)としている｡&lt;/font&gt;" style="text;html=1;align=center;verticalAlign=middle;resizable=0;points=[];autosize=1;" parent="1" vertex="1">
                    <mxGeometry x="1990" y="1830" width="1190" height="20" as="geometry"/>
                </mxCell>
                <mxCell id="206" value="&lt;font style=&quot;font-size: 18px&quot;&gt;userはフォローされる人 (follower) とフォローする人 (following) の2パターンあるからfollowing (user), follower (user) としてすべてにあだ名を付けて設定しても良いかも｡&lt;br&gt;&lt;br&gt;&lt;/font&gt;" style="text;html=1;align=center;verticalAlign=middle;resizable=0;points=[];autosize=1;" parent="1" vertex="1">
                    <mxGeometry x="1990" y="1880" width="1370" height="40" as="geometry"/>
                </mxCell>
                <mxCell id="213" value="&lt;span&gt;belongs_to: item&lt;br&gt;&lt;/span&gt;" style="whiteSpace=wrap;html=1;" vertex="1" parent="1">
                    <mxGeometry x="1238.46" y="1020" width="220" height="120" as="geometry"/>
                </mxCell>
                <mxCell id="214" value="images" style="whiteSpace=wrap;html=1;" vertex="1" parent="1">
                    <mxGeometry x="1288.46" y="1000" width="120" height="30" as="geometry"/>
                </mxCell>
                <mxCell id="215" value="" style="shape=link;html=1;width=-5;exitX=0.5;exitY=0;exitDx=0;exitDy=0;" edge="1" parent="1" source="214">
                    <mxGeometry width="100" relative="1" as="geometry">
                        <mxPoint x="1458.46" y="1089" as="sourcePoint"/>
                        <mxPoint x="1490" y="960" as="targetPoint"/>
                    </mxGeometry>
                </mxCell>
            </root>
        </mxGraphModel>
    </diagram>
</mxfile>